EMG
version=1
nRows=31
nColumns=17
inDegrees=no
endheader
time	_right_gast_med	_right_glut_max	_left_gast_med	_left_glut_max	_right_glut_med	_right_bic_fem	_right_rect_fem	_right_vast_lat	_right_vast_med	_right_tens_fasc_lat	_left_glut_med	_left_bic_fem	_left_rect_fem	_left_vast_lat	_left_vast_med	_left_tens_fasc_lat
      0.00000000	      0.22548291	      0.00317146	      0.01803433	      0.00010578	      0.00520619	      0.00302586	      0.02250484	     -0.00107040	      0.08223494	      0.00727889	      0.03228160	      0.02929844	     -0.01357275	     -0.00175470	      0.01696866	      0.04103917
      0.01000000	     -1.48427653	      0.01292712	      0.01253219	      0.01015467	      0.00823930	      0.00374644	      0.01749662	     -0.00252960	      0.06854866	      0.00965204	      0.03993293	      0.02520894	      0.06895576	     -0.02608309	      0.01097392	     -0.00387340
      0.02000000	     -0.64697623	      0.02429085	      0.00419195	      0.02232570	      0.01065504	      0.00759432	      0.00644535	      0.00196471	      0.05509650	      0.00490247	      0.03111823	      0.00447997	      0.09093584	     -0.05328690	     -0.05345072	     -0.01801542
      0.03000000	      0.89681655	      0.04324024	      0.00919374	      0.01843925	      0.01116209	      0.01034533	     -0.00873148	      0.02296597	      0.04101857	      0.01010184	      0.02310614	     -0.01389710	      0.04148192	     -0.03859403	     -0.07615419	      0.00758147
      0.04000000	     -0.98287231	      0.03887920	      0.04212197	      0.00157705	      0.01827625	      0.00785450	     -0.01212047	      0.03462531	      0.03317383	      0.02399405	      0.02607187	     -0.01036209	      0.01145509	      0.00088085	      0.01016179	      0.03249922
      0.05000000	     -1.44570529	     -0.02137856	      0.04765299	     -0.01132785	      0.02228535	     -0.00143805	     -0.00122100	      0.01925883	      0.02899732	      0.01286853	      0.03359961	      0.00112154	      0.01293197	      0.01965214	      0.06411225	      0.03942451
      0.06000000	     -0.11361228	     -0.09745698	      0.00614276	      0.00100304	      0.01890007	     -0.01482912	      0.00645118	      0.02087379	      0.02237661	      0.00258128	      0.02493241	      0.01942272	      0.02225037	      0.01663540	      0.00943969	      0.04317262
      0.07000000	      0.54846960	     -0.12667303	     -0.02018752	      0.00647850	      0.00933180	     -0.01183659	      0.00875903	      0.03191604	      0.02028537	     -0.00799400	     -0.00333153	      0.04860512	      0.01264152	      0.04205499	     -0.08013127	      0.01025736
      0.08000000	      0.58284003	     -0.07536653	     -0.01057220	      0.00317994	     -0.00505989	      0.00238299	      0.01418551	      0.01309596	      0.01972648	     -0.01545473	     -0.03577507	      0.05030777	      0.02434920	      0.04937147	     -0.07126665	     -0.02479958
      0.09000000	      0.55109859	     -0.01040636	     -0.00938128	      0.04456141	     -0.00017412	      0.01102151	      0.01860722	     -0.02075831	      0.01484983	     -0.00118865	     -0.03580946	      0.01371033	      0.05369427	      0.02916085	      0.03318731	     -0.00875972
      0.10000000	      1.21144211	     -0.01471553	      0.00313542	      0.06810168	      0.01767145	      0.00353204	      0.02688476	     -0.03231331	      0.01191502	      0.00884922	     -0.01111602	     -0.00297654	      0.05312255	      0.00501749	      0.09177925	      0.02489413
      0.11000000	      2.14083314	     -0.01567386	      0.01900261	      0.01663817	      0.01110917	     -0.00455756	      0.03090004	     -0.01813520	      0.01002453	      0.01045948	     -0.00340731	      0.00621593	      0.03196788	     -0.01577996	      0.02642814	      0.04075546
      0.12000000	      2.25564766	      0.13147119	      0.01323723	     -0.02560520	     -0.01211179	      0.02376249	      0.02573741	      0.01417131	      0.01016717	      0.01376313	     -0.01270609	     -0.00223630	      0.01669012	     -0.01929692	     -0.04749191	      0.03856096
      0.13000000	      1.39012659	      0.19348992	      0.00878556	     -0.02910841	     -0.02453413	      0.03553403	      0.02588856	      0.02907161	      0.01056547	      0.02129686	     -0.01841360	     -0.01357188	      0.01226131	     -0.00866842	     -0.01532339	      0.01775387
      0.14000000	     -1.33112049	      0.15086369	      0.01573950	     -0.01521555	     -0.02057422	      0.01957360	      0.01498587	      0.02895320	      0.00321904	      0.02317559	     -0.00950749	     -0.01055812	      0.01687733	     -0.00016871	      0.04909562	     -0.00035617
      0.15000000	     -3.15536642	      0.10712517	      0.01125628	      0.00857968	     -0.00109128	      0.01239955	      0.00142726	      0.03480373	     -0.01864750	      0.01805378	      0.00474460	      0.00484944	      0.01313858	      0.00468197	      0.04445724	      0.00930431
      0.16000000	     -2.53313851	      0.07998911	      0.01202646	      0.01741209	      0.02019746	      0.01547965	      0.00247437	      0.02813710	     -0.03246244	      0.01410773	      0.00914055	      0.00065914	      0.00427462	      0.00729900	     -0.01118426	      0.02084753
      0.17000000	     -0.87455684	      0.08982842	      0.01481636	     -0.00001136	      0.03003534	      0.02102897	      0.00409983	      0.02163092	     -0.02983971	      0.01157888	      0.00751616	      0.00041990	      0.00444050	      0.00655013	     -0.05590793	      0.00833500
      0.18000000	      0.29053658	      0.09223383	      0.02702677	     -0.02147887	      0.02703763	      0.02100074	      0.00534999	      0.02093801	     -0.01645889	      0.00522613	      0.00305896	      0.01797616	      0.01297315	      0.00685623	     -0.04999551	     -0.01945750
      0.19000000	      0.66330236	      0.08297708	      0.01989136	     -0.00432822	      0.02224989	      0.01531210	      0.00833628	      0.00967709	     -0.00303678	      0.00138514	      0.00195245	      0.02511177	      0.01632986	      0.00630769	      0.00170677	     -0.04264371
      0.20000000	      0.68793893	     -0.03682208	     -0.01684043	      0.00590994	      0.01187501	      0.00682846	      0.01172380	     -0.00427482	     -0.00061208	     -0.00035456	      0.00441351	      0.02251852	      0.01715911	      0.00017407	      0.03529984	     -0.04640070
      0.21000000	      0.61079234	     -0.15627517	     -0.00092767	     -0.01114915	     -0.00111700	     -0.00720798	      0.00970464	     -0.01198376	      0.00002654	     -0.00661858	      0.00568897	      0.02494662	      0.01839641	     -0.00358724	      0.02825545	     -0.02910716
      0.22000000	      0.51796442	     -0.13342044	      0.05662982	      0.00445673	     -0.00943369	     -0.01733100	      0.00421770	     -0.01378573	      0.00232726	     -0.00741604	      0.00751106	      0.01097645	      0.01937766	     -0.00187918	      0.01381232	     -0.00800629
      0.23000000	      0.42625177	     -0.06207092	     -0.01883500	      0.03200038	     -0.01405309	     -0.00375874	      0.00150312	     -0.01234997	      0.00413598	     -0.00334876	      0.00958394	      0.00268403	      0.01360697	     -0.00608630	      0.00837957	      0.01087048
      0.24000000	      0.34020063	     -0.01152664	     -0.04699227	     -0.02689420	     -0.01235160	      0.01266486	     -0.00204864	     -0.01248175	      0.00236752	     -0.00102328	      0.01025128	      0.01366267	      0.00689417	     -0.00418768	      0.01439173	      0.01997249
      0.25000000	      0.26488745	      0.00317544	      0.03417332	      0.06846471	     -0.00350510	      0.00583902	     -0.00162672	     -0.01387884	      0.00042487	      0.00311096	      0.01354904	      0.00870679	      0.00578336	      0.01685558	      0.02007034	      0.02343558
      0.26000000	      0.20248155	     -0.00180617	      0.03158858	      1.00642896	      0.01027786	     -0.00756107	     -0.00498950	     -0.01530777	      0.00186522	      0.01150663	      0.01696230	      0.00438811	      0.01092926	      0.03329299	     -0.01237011	      0.02282904
      0.27000000	      0.14906223	     -0.00371079	      0.01169542	      0.80923921	      0.01544921	      0.00716628	     -0.01052910	      0.01129328	      0.00190371	      0.01933396	      0.01675798	      0.01180012	      0.01520105	      0.00693794	     -0.07559621	      0.01544644
      0.28000000	      0.10687322	      0.00008724	     -0.02033286	     -1.99929142	      0.01662092	      0.03491465	     -0.00135160	      0.01665673	      0.00166757	      0.02432005	      0.01312153	      0.01520833	      0.01261943	     -0.03202692	     -0.07805593	      0.01263763
      0.29000000	      0.08487949	      0.00119211	     -0.02918449	     -2.50026393	      0.02541921	      0.03571611	      0.00965711	     -0.00221432	      0.00143492	      0.01866176	      0.00945418	      0.02405431	      0.00433456	     -0.01301153	      0.01248238	      0.01443963
      0.30000000	      0.06353404	     -0.00178307	      0.06600595	     -0.69859082	      0.02463055	      0.02344923	      0.01119921	      0.00313854	      0.00192714	      0.00443205	      0.00474065	      0.02034874	     -0.00005840	      0.02374596	      0.10713357	      0.00827329
